<?xml version="1.0" encoding="utf-8"?>
<!-- Generator: Adobe Illustrator 24.3.0, SVG Export Plug-In . SVG Version: 6.00 Build 0)  -->
<svg version="1.1" id="Layer_1" xmlns="http://www.w3.org/2000/svg" xmlns:xlink="http://www.w3.org/1999/xlink" x="0px" y="0px"
	 viewBox="0 0 180 180" style="enable-background:new 0 0 180 180;" xml:space="preserve">
<style type="text/css">
	.st0{fill:#FF9975;}
	.st1{fill:#FF916E;}
	.st2{fill:#45525B;}
	.st3{fill:#192E2D;}
	.st4{fill:#FFFFFF;}
	.st5{fill:#657077;}
	.st6{fill:#CFDBE5;}
	.st7{fill:#EF7048;}
</style>
<g>
	<g>
		<g id="XMLID_145_">
			<path class="st0" d="M154.6,90c0,35.7-28.9,64.6-64.6,64.6c-35.7,0-64.6-28.9-64.6-64.6c0-35.7,28.9-64.6,64.6-64.6
				C125.7,25.4,154.6,54.3,154.6,90z"/>
		</g>
	</g>
	<g>
		<g>
			<path class="st1" d="M101.2,127.8h23.2c2.1,0,3.8,1.7,3.8,3.8l0,0c0,2.1-1.7,3.8-3.8,3.8h-23.2c-2.1,0-3.8-1.7-3.8-3.8l0,0
				C97.4,129.5,99.1,127.8,101.2,127.8z"/>
		</g>
		<g>
			<path class="st1" d="M104.8,112.9h21.6c2.1,0,3.8,1.7,3.8,3.8l0,0c0,2.1-1.7,3.8-3.8,3.8h-21.6c-2.1,0-3.8-1.7-3.8-3.8l0,0
				C101,114.7,102.7,112.9,104.8,112.9z"/>
		</g>
		<g>
			<path class="st1" d="M90.4,112.9H96c2.1,0,3.8,1.7,3.8,3.8l0,0c0,2.1-1.7,3.8-3.8,3.8h-5.6c-2.1,0-3.8-1.7-3.8-3.8l0,0
				C86.6,114.7,88.3,112.9,90.4,112.9z"/>
		</g>
		<g>
			<path class="st1" d="M108.9,123.8v0.9c0,1.9-1.5,3.4-3.4,3.4H124c-1.9,0-3.4-1.5-3.4-3.4v-0.9c0-1.9,1.5-3.4,3.4-3.4h-18.5
				C107.4,120.4,108.9,121.9,108.9,123.8z"/>
		</g>
	</g>
	<g>
		<g>
			<path class="st1" d="M54.2,125.7h23.2c2.1,0,3.8,1.7,3.8,3.8l0,0c0,2.1-1.7,3.8-3.8,3.8H54.2c-2.1,0-3.8-1.7-3.8-3.8l0,0
				C50.4,127.4,52.1,125.7,54.2,125.7z"/>
		</g>
		<g>
			<path class="st1" d="M57.8,110.8h21.6c2.1,0,3.8,1.7,3.8,3.8l0,0c0,2.1-1.7,3.8-3.8,3.8H57.8c-2.1,0-3.8-1.7-3.8-3.8l0,0
				C54,112.5,55.7,110.8,57.8,110.8z"/>
		</g>
		<g>
			<path class="st1" d="M43.5,110.8h5.6c2.1,0,3.8,1.7,3.8,3.8l0,0c0,2.1-1.7,3.8-3.8,3.8h-5.6c-2.1,0-3.8-1.7-3.8-3.8l0,0
				C39.6,112.5,41.3,110.8,43.5,110.8z"/>
		</g>
		<g>
			<path class="st1" d="M61.9,121.6v0.9c0,1.9-1.5,3.4-3.4,3.4h18.5c-1.9,0-3.4-1.5-3.4-3.4v-0.9c0-1.9,1.5-3.4,3.4-3.4H58.6
				C60.4,118.2,61.9,119.7,61.9,121.6z"/>
		</g>
	</g>
	<g>
		<g>
			<path class="st1" d="M115.7,87.2H139c2.1,0,3.8,1.7,3.8,3.8l0,0c0,2.1-1.7,3.8-3.8,3.8h-23.2c-2.1,0-3.8-1.7-3.8-3.8l0,0
				C111.9,88.9,113.6,87.2,115.7,87.2z"/>
		</g>
		<g>
			<path class="st1" d="M119.4,72.3h21.6c2.1,0,3.8,1.7,3.8,3.8l0,0c0,2.1-1.7,3.8-3.8,3.8h-21.6c-2.1,0-3.8-1.7-3.8-3.8l0,0
				C115.5,74,117.2,72.3,119.4,72.3z"/>
		</g>
		<g>
			<path class="st1" d="M105,72.3h5.6c2.1,0,3.8,1.7,3.8,3.8l0,0c0,2.1-1.7,3.8-3.8,3.8H105c-2.1,0-3.8-1.7-3.8-3.8l0,0
				C101.2,74,102.9,72.3,105,72.3z"/>
		</g>
		<g>
			<path class="st1" d="M123.5,83.1V84c0,1.9-1.5,3.4-3.4,3.4h18.5c-1.9,0-3.4-1.5-3.4-3.4v-0.9c0-1.9,1.5-3.4,3.4-3.4h-18.5
				C121.9,79.7,123.5,81.2,123.5,83.1z"/>
		</g>
	</g>
	<g>
		<g>
			<path class="st1" d="M46.4,84.9h23.2c2.1,0,3.8,1.7,3.8,3.8l0,0c0,2.1-1.7,3.8-3.8,3.8H46.4c-2.1,0-3.8-1.7-3.8-3.8l0,0
				C42.6,86.6,44.3,84.9,46.4,84.9z"/>
		</g>
		<g>
			<path class="st1" d="M50,70h21.6c2.1,0,3.8,1.7,3.8,3.8l0,0c0,2.1-1.7,3.8-3.8,3.8H50c-2.1,0-3.8-1.7-3.8-3.8l0,0
				C46.2,71.7,47.9,70,50,70z"/>
		</g>
		<g>
			<path class="st1" d="M35.7,70h5.6c2.1,0,3.8,1.7,3.8,3.8l0,0c0,2.1-1.7,3.8-3.8,3.8h-5.6c-2.1,0-3.8-1.7-3.8-3.8l0,0
				C31.8,71.7,33.5,70,35.7,70z"/>
		</g>
		<g>
			<path class="st1" d="M54.1,80.8v0.9c0,1.9-1.5,3.4-3.4,3.4h18.5c-1.9,0-3.4-1.5-3.4-3.4v-0.9c0-1.9,1.5-3.4,3.4-3.4H50.8
				C52.6,77.4,54.1,78.9,54.1,80.8z"/>
		</g>
	</g>
	<g>
		<g id="XMLID_144_">
			<path class="st2" d="M130,92.5l7.1,0.2l0.5-15l-7.1-0.2c-0.9-5.8-2.9-11.2-5.9-15.9l5.2-4.8l-10.2-11l-5.2,4.8
				c-3.6-2.6-7.6-4.7-11.9-6.1c-1.1-0.4-2.3-0.7-3.4-0.9c0,0-0.1,0-0.1,0l0.3-7.1l-15-0.5L84,43c-1.5,0.2-3,0.5-4.5,0.9
				c-4.1,1.1-8,2.8-11.5,5l-4.8-5.2L52.2,54l4.8,5.2c-3.4,4.5-5.8,9.8-7.1,15.5l-7.1-0.3l-0.5,15l7.1,0.3c0.9,5.8,2.9,11.2,5.9,15.9
				l-5.2,4.8l10.2,11l5.2-4.8c4.5,3.4,9.8,5.8,15.5,7.1l-0.3,7.1l14.9,0.5l0.3-7.1c1.5-0.2,3-0.5,4.5-0.9c4.1-1.1,8-2.8,11.5-5
				l4.8,5.2l10.9-10.2l-4.8-5.2C126.3,103.4,128.7,98.2,130,92.5z M81.1,116.1c-18-4.9-28.6-23.4-23.7-41.4
				c4.9-18,23.4-28.6,41.4-23.7c18,4.9,28.6,23.4,23.7,41.4C117.7,110.4,99.1,121,81.1,116.1z"/>
		</g>
		<g>
			<g>
				<path class="st3" d="M97.2,48.2c-18-4.9-36.5,5.7-41.4,23.7c-2.6,9.6-0.8,19.3,4.1,27c-3.7-7.2-4.8-15.7-2.5-24.2
					c4.9-18,23.4-28.6,41.4-23.7c8.4,2.3,15.2,7.6,19.6,14.4C114.3,57.2,106.8,50.8,97.2,48.2z"/>
			</g>
			<g>
				<path class="st3" d="M52.2,54l2.8,3c0.1-0.2,0.3-0.4,0.4-0.6l-2.7-2.9L52.2,54z"/>
			</g>
			<g>
				<path class="st3" d="M135.5,89.9l-7.1-0.3c-1.3,5.7-3.7,11-7.1,15.5l2.1,2.2c3.1-4.4,5.4-9.4,6.6-14.9l7.1,0.2l0.5-15l-1.7-0.1
					L135.5,89.9z"/>
			</g>
			<g>
				<path class="st3" d="M128.9,74.7l1.1,0c-1-4.6-2.8-9-5.3-12.9C126.8,65.8,128.2,70.1,128.9,74.7z"/>
			</g>
			<g>
				<path class="st3" d="M53.8,102.7L53.8,102.7c0-0.1-0.1-0.2-0.1-0.3C53.7,102.5,53.7,102.6,53.8,102.7z"/>
			</g>
			<g>
				<path class="st3" d="M58.8,118.5l-8-8.6l-0.5,0.5l10.2,11l5.2-4.8c4.1,3,8.8,5.4,15.5,7.1l0.1-2.2c-5.7-1.3-12.7-4.3-17.2-7.7
					L58.8,118.5z"/>
			</g>
			<g>
				<path class="st3" d="M115.2,120.5l-4.8-5.2c-3.5,2.2-7.4,3.9-11.5,5c-1.5,0.4-3,0.7-4.5,0.9l-0.2,7.1l-13.2-0.5l-0.1,2.8
					l14.9,0.5l0.3-7.1c1.5-0.2,3-0.5,4.5-0.9c4.1-1.1,8-2.8,11.5-5l4.8,5.2l10.9-10.2l-2.2-2.3L115.2,120.5z"/>
			</g>
			<g>
				<path class="st3" d="M42.5,86.6l-0.1,2.8l6,0.2c-0.2-0.9-0.4-1.9-0.5-2.8L42.5,86.6z"/>
			</g>
			<g>
				<path class="st3" d="M97.3,40.7c0,0,0.1,0,0.1,0c0.5,0.1,1.1,0.2,1.6,0.4l0.2-4.7l-1.7-0.1L97.3,40.7z"/>
			</g>
			<g>
				<path class="st3" d="M123,58.7c0.6,0.9,1.1,1.9,1.6,2.8l5.2-4.8l-2.2-2.3L123,58.7z"/>
			</g>
		</g>
	</g>
	<g>
		<g>
			<path class="st4" d="M66.6,37.4c0,1.9-1.5,3.4-3.4,3.4c1.9,0,3.4,1.5,3.4,3.4c0-1.9,1.5-3.4,3.4-3.4
				C68.1,40.8,66.6,39.3,66.6,37.4z"/>
		</g>
		<g>
			<path class="st4" d="M126.4,65.3c0,1-0.8,1.9-1.9,1.9c1,0,1.9,0.8,1.9,1.9c0-1,0.8-1.9,1.9-1.9C127.3,67.2,126.4,66.3,126.4,65.3
				z"/>
		</g>
		<g>
			<path class="st4" d="M51.5,74.4c0,3.1-2.5,5.6-5.6,5.6c3.1,0,5.6,2.5,5.6,5.6c0-3.1,2.5-5.6,5.6-5.6C54,79.9,51.5,77.4,51.5,74.4
				z"/>
		</g>
		<g>
			<path class="st4" d="M63.2,44c0,1-0.8,1.7-1.7,1.7c1,0,1.7,0.8,1.7,1.7c0-1,0.8-1.7,1.7-1.7C63.9,45.7,63.2,45,63.2,44z"/>
		</g>
		<g>
			<path class="st4" d="M131.2,59.6c0,1.6-1.3,2.9-2.9,2.9c1.6,0,2.9,1.3,2.9,2.9c0-1.6,1.3-2.9,2.9-2.9
				C132.5,62.5,131.2,61.2,131.2,59.6z"/>
		</g>
		<g>
			<path class="st4" d="M104.5,35.8c0,1-0.8,1.9-1.9,1.9c1,0,1.9,0.8,1.9,1.9c0-1,0.8-1.9,1.9-1.9C105.4,37.7,104.5,36.9,104.5,35.8
				z"/>
		</g>
		<g>
			<path class="st4" d="M109.2,39.5c0,1.6-1.3,2.9-2.9,2.9c1.6,0,2.9,1.3,2.9,2.9c0-1.6,1.3-2.9,2.9-2.9
				C110.5,42.4,109.2,41.1,109.2,39.5z"/>
		</g>
	</g>
	<g>
		<g id="XMLID_1406_">
			<g id="XMLID_143_">
				<path class="st4" d="M90.5,49.4c-18.9,0-34.1,15.3-34.1,34.1c0,6.4,1.8,12.3,4.8,17.4H61c14,21.7,12.6,31.6,12.6,31.6h16.9h16.9
					c0,0-1.5-9.9,12.5-31.6h-0.1c3-5.1,4.8-11.1,4.8-17.4C124.6,64.7,109.3,49.4,90.5,49.4z"/>
			</g>
		</g>
		<g id="XMLID_1403_">
			<g id="XMLID_1405_">
				<path class="st2" d="M95,115.8c-1.1,0-1.9,0.9-1.9,1.9c0,0.8,0.5,1.5,1.2,1.8v17.8h1.5v-17.8c0.7-0.3,1.2-1,1.2-1.8
					C96.9,116.7,96,115.8,95,115.8z"/>
			</g>
			<g id="XMLID_1404_">
				<path class="st2" d="M86,115.8c-1.1,0-1.9,0.9-1.9,1.9c0,0.8,0.5,1.5,1.2,1.8v17.8h1.5v-17.8c0.7-0.3,1.2-1,1.2-1.8
					C88,116.7,87.1,115.8,86,115.8z"/>
			</g>
		</g>
		<g id="XMLID_135_">
			<g id="XMLID_1401_">
				<g id="XMLID_1402_">
					<polygon class="st5" points="73.6,141.8 77.2,148 103.8,148 107.4,141.8 107.4,133 73.6,133 					"/>
				</g>
			</g>
			<g id="XMLID_953_">
				<g id="XMLID_141_">
					<g id="XMLID_142_">
						<path class="st6" d="M107.8,130.4H73.2c-0.8,0-1.4,0.7-1.4,1.5c0,0.8,0.6,1.5,1.4,1.5h34.6c0.8,0,1.4-0.7,1.4-1.5
							C109.2,131.1,108.6,130.4,107.8,130.4z"/>
					</g>
				</g>
				<g id="XMLID_138_">
					<g id="XMLID_140_">
						<path class="st6" d="M107.8,136.3H73.2c-0.8,0-1.4,0.7-1.4,1.5c0,0.8,0.6,1.5,1.4,1.5h34.6c0.8,0,1.4-0.7,1.4-1.5
							C109.2,137,108.6,136.3,107.8,136.3z"/>
					</g>
				</g>
				<g id="XMLID_136_">
					<g id="XMLID_137_">
						<path class="st6" d="M107.4,141.8H73.6c-0.7,0-1.3,0.6-1.3,1.4c0,0.8,0.6,1.4,1.3,1.4h33.8c0.7,0,1.3-0.6,1.3-1.4
							C108.7,142.4,108.1,141.8,107.4,141.8z"/>
					</g>
				</g>
			</g>
		</g>
		<g id="XMLID_956_">
			<g id="XMLID_1390_">
				<g id="XMLID_1407_">
					<g id="XMLID_1413_">
						<path class="st7" d="M84.8,54.4c-3.9-0.1-4.8,3.1-4.8,3.1c-6.2,0.3-6.9,3.8-6.9,3.8c-4.8,1.5-4.6,6.4-4.6,6.4
							c-3.5,2.8-1.8,6.5-1.8,6.5c-2.9,3.3,0,7.1,0,7.1c-0.5,5.3,2.4,6.9,2.4,6.9c1.5,5.8,6.8,6,6.8,6C78.6,98.4,84,97,84,97
							c4.8-0.1,5.5-5.9,5.5-5.9V58.3C89.1,57.5,88.7,54.6,84.8,54.4z"/>
					</g>
					<g id="XMLID_1412_">
						<path class="st0" d="M81.7,56.6c0,0-2.9,3.2,0,6c0,0,2.6-0.7,3.5-0.3c0,0,0.3,0.1,0.1,0.6c0,0-0.7,1,0.1,2.6
							c0,0,0.2,1-0.6,0.5c0,0-2.5-1.2-4-2.6c0,0-1.8-1.2-1.6-4.5c0,0-3.7-0.5-5.5,3.5c0,0-4.1,0.8-3.9,5.4c0,0,0.2,5.1,4.6,6.1
							c0,0,1.7,0.2,2.7,0c0,0-0.6-2.2-0.3-2.9c0.1-0.3,0.8-1,1.3-0.1c0,0-1,4.6,3.5,4.8c0,0,5.1-1.8,6.7-8.5v-8.8
							C88.4,58.3,86.1,53.6,81.7,56.6z"/>
					</g>
					<g id="XMLID_1410_">
						<path class="st0" d="M77.8,78c-1.5-0.4-0.8-3.5-0.8-3.5c-7.3,1.2-8.2-5.3-8.2-5.3c-2.4,1.9-0.8,5.4-0.8,5.4
							c-3.5,5.3,1,7.2,1,7.2c3.3,1.9,6.2-0.3,6.2-0.3l0.6-0.5c2.6,3.1,5.9,1.3,5.9,1.3l0.8-1.6l1.4,2.9c-0.7,0.6-1.5-0.5-1.5-0.5
							c-4,2.2-6.9-0.8-6.9-0.8c-0.5,0.7-2.7,1.2-2.7,1.2c-2.4,0.5-5.2-1.2-5.2-1.2c-0.3,3.1,2.4,5.2,2.4,5.2C71.7,92.9,75,93,75,93
							c-2.1-5.1,1.5-8.4,1.5-8.4c1.1-0.7,1.2,0.8,1.2,0.8c-2.8,2.1-1.9,5.8-1.9,5.8c0.9,5.1,6.7,5.1,6.7,5.1c4.8,0.1,6-5.1,6-5.1
							v-20C84.5,77.9,77.8,78,77.8,78z"/>
					</g>
				</g>
			</g>
			<g id="XMLID_1297_">
				<g id="XMLID_1302_">
					<g id="XMLID_1312_">
						<path class="st7" d="M114.3,74.3c0,0,1.7-3.7-1.8-6.5c0,0,0.2-4.9-4.6-6.4c0,0-0.7-3.5-6.9-3.8c0,0-1-3.3-4.8-3.1
							c-3.9,0.1-4.4,3-4.8,3.9v32.8c0,0,0.7,5.7,5.5,5.9c0,0,5.5,1.4,8.1-2.7c0,0,5.3-0.2,6.8-6c0,0,3-1.6,2.4-6.9
							C114.3,81.4,117.2,77.7,114.3,74.3z"/>
					</g>
					<g id="XMLID_1306_">
						<path class="st0" d="M107.2,62.3c-1.8-3.9-5.5-3.5-5.5-3.5c0.2,3.3-1.6,4.5-1.6,4.5c-1.5,1.3-4,2.6-4,2.6
							c-0.8,0.6-0.6-0.5-0.6-0.5c0.8-1.5,0.1-2.6,0.1-2.6c-0.2-0.5,0.1-0.6,0.1-0.6c1-0.4,3.5,0.3,3.5,0.3c2.9-2.8,0-6,0-6
							c-4.4-2.9-6.7,1.7-6.7,1.7v8.8c1.6,6.7,6.7,8.5,6.7,8.5c4.6-0.1,3.5-4.8,3.5-4.8c0.5-0.9,1.2-0.2,1.3,0.1
							c0.3,0.7-0.3,2.9-0.3,2.9c1,0.2,2.7,0,2.7,0c4.4-1,4.6-6.1,4.6-6.1C111.3,63,107.2,62.3,107.2,62.3z"/>
					</g>
					<g id="XMLID_1304_">
						<path class="st0" d="M99.3,82.4c0,0,3.3,1.9,5.9-1.3l0.6,0.5c0,0,2.9,2.1,6.2,0.3c0,0,4.6-1.9,1-7.2c0,0,1.6-3.5-0.8-5.4
							c0,0-0.9,6.5-8.2,5.3c0,0,0.7,3.1-0.8,3.5c0,0-6.7-0.1-10.6-6.9v20c0,0,1.1,5.2,6,5.1c0,0,5.8,0,6.7-5.1c0,0,0.9-3.8-1.9-5.8
							c0,0,0.1-1.5,1.2-0.8c0,0,3.5,3.3,1.5,8.4c0,0,3.3-0.1,5.1-5.3c0,0,2.6-2.1,2.4-5.2c0,0-2.8,1.7-5.2,1.2c0,0-2.2-0.5-2.7-1.2
							c0,0-2.9,3-6.9,0.8c0,0-0.8,1-1.5,0.5l1.4-2.9L99.3,82.4z"/>
					</g>
				</g>
			</g>
		</g>
	</g>
</g>
</svg>
